<svg width="30" height="13" viewBox="0 0 30 13" fill="none" xmlns="http://www.w3.org/2000/svg">
<path d="M26.2775 7.57712H25.0947C23.2756 7.57712 21.4574 7.57802 19.6392 7.57893C17.821 7.57984 16.0028 7.58074 14.1837 7.58074H14.1823C10.5769 7.58074 6.97153 7.58074 3.36256 7.57712C3.10837 7.57712 2.85459 7.57752 2.60094 7.57792C2.09403 7.57873 1.58766 7.57954 1.07969 7.57712C0.60874 7.57349 0.206093 7.28316 0.0586958 6.85493C-0.0887018 6.4267 0.0479106 5.94041 0.396632 5.66097C0.59436 5.50129 0.817254 5.41782 1.0761 5.41782H23.7969H26.3206C26.3043 5.39935 26.2894 5.38244 26.2757 5.36675C26.2381 5.32385 26.2084 5.29002 26.1768 5.25814L26.1658 5.24692C25.0514 4.11842 23.9406 2.9935 22.8262 1.86859C22.3804 1.41495 22.3697 0.754463 22.8047 0.311717C23.2217 -0.109255 23.9012 -0.105626 24.3362 0.333491C25.1808 1.18608 26.0254 2.03958 26.87 2.89308C27.715 3.74706 28.5601 4.60104 29.4052 5.45411C29.4807 5.53032 29.5598 5.60653 29.6389 5.67911C30.1386 6.14 30.1098 6.87671 29.6137 7.3376C29.2158 7.7082 28.8343 8.09917 28.4524 8.49066C28.2995 8.64738 28.1465 8.80418 27.9923 8.95979C27.3813 9.57847 26.7693 10.1962 26.1573 10.814C25.5452 11.4319 24.933 12.0499 24.3218 12.6687C23.894 13.1006 23.2217 13.1114 22.8047 12.6941C22.3804 12.2659 22.3768 11.58 22.8047 11.1481C23.8328 10.1066 24.861 9.06866 25.8928 8.03075C25.9876 7.93511 26.0878 7.84314 26.1883 7.75093C26.2289 7.71369 26.2695 7.6764 26.3098 7.63881C26.2991 7.61704 26.2883 7.59526 26.2775 7.57712Z" fill="white"/>
<path d="M26.2775 7.57712H25.0947C23.2756 7.57712 21.4574 7.57802 19.6392 7.57893C17.821 7.57984 16.0028 7.58074 14.1837 7.58074H14.1823C10.5769 7.58074 6.97153 7.58074 3.36256 7.57712C3.10837 7.57712 2.85459 7.57752 2.60094 7.57792C2.09403 7.57873 1.58766 7.57954 1.07969 7.57712C0.60874 7.57349 0.206093 7.28316 0.0586958 6.85493C-0.0887018 6.4267 0.0479106 5.94041 0.396632 5.66097C0.59436 5.50129 0.817254 5.41782 1.0761 5.41782H23.7969H26.3206C26.3043 5.39935 26.2894 5.38244 26.2757 5.36675C26.2381 5.32385 26.2084 5.29002 26.1768 5.25814L26.1658 5.24692C25.0514 4.11842 23.9406 2.9935 22.8262 1.86859C22.3804 1.41495 22.3697 0.754463 22.8047 0.311717C23.2217 -0.109255 23.9012 -0.105626 24.3362 0.333491C25.1808 1.18608 26.0254 2.03958 26.87 2.89308C27.715 3.74706 28.5601 4.60104 29.4052 5.45411C29.4807 5.53032 29.5598 5.60653 29.6389 5.67911C30.1386 6.14 30.1098 6.87671 29.6137 7.3376C29.2158 7.7082 28.8343 8.09917 28.4524 8.49066C28.2995 8.64738 28.1465 8.80418 27.9923 8.95979C27.3813 9.57847 26.7693 10.1962 26.1573 10.814C25.5452 11.4319 24.933 12.0499 24.3218 12.6687C23.894 13.1006 23.2217 13.1114 22.8047 12.6941C22.3804 12.2659 22.3768 11.58 22.8047 11.1481C23.8328 10.1066 24.861 9.06866 25.8928 8.03075C25.9876 7.93511 26.0878 7.84314 26.1883 7.75093C26.2289 7.71369 26.2695 7.6764 26.3098 7.63881C26.2991 7.61704 26.2883 7.59526 26.2775 7.57712Z" stroke="#3170F6"/>
</svg>
