<svg width="44" height="44" viewBox="0 0 44 44" fill="none" xmlns="http://www.w3.org/2000/svg">
<path fill-rule="evenodd" clip-rule="evenodd" d="M6.41667 18.9158C6.41667 10.4828 13.4638 3.66663 21.988 3.66663C30.5362 3.66663 37.5833 10.4828 37.5833 18.9158C37.5833 23.1654 36.0379 27.1106 33.4941 30.4545C30.6878 34.1431 27.229 37.3568 23.3357 39.8794C22.4446 40.4624 21.6404 40.5064 20.6625 39.8794C16.747 37.3568 13.2882 34.1431 10.5059 30.4545C7.96031 27.1106 6.41667 23.1654 6.41667 18.9158ZM16.8561 19.3907C16.8561 22.2158 19.1614 24.4377 21.988 24.4377C24.8164 24.4377 27.1439 22.2158 27.1439 19.3907C27.1439 16.5876 24.8164 14.2575 21.988 14.2575C19.1614 14.2575 16.8561 16.5876 16.8561 19.3907Z" fill="#0055FF"/>
</svg>
