<svg width="44" height="44" viewBox="0 0 44 44" fill="none" xmlns="http://www.w3.org/2000/svg">
<path fill-rule="evenodd" clip-rule="evenodd" d="M31.0556 5.5C33.5141 5.5 35.8791 6.47167 37.6189 8.21517C39.3606 9.955 40.3341 12.3017 40.3341 14.7583V29.2417C40.3341 34.3567 36.1724 38.5 31.0556 38.5H12.9441C7.82724 38.5 3.6674 34.3567 3.6674 29.2417V14.7583C3.6674 9.64333 7.8089 5.5 12.9441 5.5H31.0556ZM33.9724 17.49L34.1191 17.3433C34.5572 16.8117 34.5572 16.0417 34.0989 15.51C33.8441 15.2368 33.4939 15.07 33.1291 15.0333C32.7441 15.0132 32.3774 15.1433 32.1006 15.4L23.8341 22C22.7707 22.8818 21.2472 22.8818 20.1674 22L11.9174 15.4C11.3472 14.9783 10.5589 15.0333 10.0841 15.5283C9.58907 16.0233 9.53407 16.8117 9.9539 17.3617L10.1941 17.6L18.5357 24.1083C19.5624 24.915 20.8072 25.355 22.1107 25.355C23.4106 25.355 24.6774 24.915 25.7022 24.1083L33.9724 17.49Z" fill="#0055FF"/>
</svg>
